<?xml version="1.0" encoding="UTF-8"?>
<svg id="Laag_2" xmlns="http://www.w3.org/2000/svg" viewBox="0 0 32 32">
  <g id="svg-source">
    <g id="calendar">
      <g>
        <path d="M31.43,0H.57c-.31,0-.57.26-.57.57v30.85c0,.32.26.57.57.57h30.85c.31,0,.57-.26.57-.58V.57c0-.31-.26-.57-.57-.57ZM1.15,1.15h29.7v8.42H1.15V1.15ZM1.15,10.71h29.7v12.43h-7.14c-.31,0-.57.26-.57.58v7.14H1.15V10.71ZM30.04,24.29l-5.75,5.75v-5.75h5.75ZM25.1,30.85l5.75-5.75v5.75h-5.75Z"/>
        <path d="M9.28,3.85c-.83,0-1.51.67-1.51,1.51s.68,1.51,1.51,1.51,1.51-.68,1.51-1.51-.68-1.51-1.51-1.51ZM8.92,5.36c0-.2.16-.36.35-.36s.36.16.36.36c0,.41-.72.41-.72,0Z"/>
        <path d="M22.71,3.85c-.83,0-1.51.67-1.51,1.51s.68,1.51,1.51,1.51,1.51-.68,1.51-1.51-.68-1.51-1.51-1.51ZM22.35,5.36c0-.2.16-.36.36-.36s.36.16.36.36c0,.4-.72.41-.72,0Z"/>
      </g>
    </g>
  </g>
</svg>