<?xml version="1.0" encoding="UTF-8"?>
<svg id="Laag_2" data-name="Laag 2" xmlns="http://www.w3.org/2000/svg" viewBox="0 0 32 32">
  <g id="svg-source">
    <g id="compass">
      <g>
        <path d="M22.59,8.65l-9.55,4.09c-.14.06-.24.17-.3.3l-4.09,9.54c-.09.22-.04.47.13.64.11.11.26.17.41.17.07,0,.15-.02.23-.05l9.54-4.09c.14-.06.25-.17.31-.3l4.09-9.54c.09-.22.04-.47-.12-.64-.16-.16-.42-.21-.64-.12ZM10.28,21.72l3.18-7.43,4.25,4.25-7.43,3.18ZM18.53,17.72l-4.25-4.25,7.43-3.19-3.18,7.44Z"/>
        <path d="M16,0C7.18,0,0,7.18,0,16s7.18,16,16,16,16-7.18,16-16S24.82,0,16,0ZM16,30.85c-8.19,0-14.84-6.66-14.84-14.85,0-8.18,6.66-14.84,14.84-14.84s14.84,6.66,14.84,14.84-6.66,14.85-14.84,14.85Z"/>
        <path d="M16,4.28c.44,0,.81-.36.81-.81s-.36-.81-.81-.81-.81.36-.81.81.36.81.81.81ZM16,3.13c.19,0,.35.15.35.34,0,.38-.69.38-.69,0,0-.19.15-.34.34-.34Z"/>
        <path d="M16,27.72c-.44,0-.81.36-.81.81s.36.81.81.81.81-.36.81-.81-.36-.81-.81-.81ZM15.66,28.53c0-.19.15-.34.34-.34s.35.15.35.34c0,.39-.69.39-.69,0Z"/>
        <path d="M28.53,15.19c-.44,0-.81.36-.81.81s.37.81.81.81.81-.36.81-.81c0-.45-.36-.81-.81-.81ZM28.19,16c0-.19.15-.34.34-.34s.34.15.34.34c0,.39-.68.39-.68,0Z"/>
        <path d="M3.47,15.19c-.45,0-.81.36-.81.81s.36.81.81.81.81-.36.81-.81c0-.45-.36-.81-.81-.81ZM3.13,16c0-.19.15-.34.35-.34s.34.15.34.34c0,.38-.69.38-.69,0Z"/>
      </g>
    </g>
  </g>
</svg>