<?xml version="1.0" encoding="UTF-8"?>
<svg id="Laag_2" data-name="Laag 2" xmlns="http://www.w3.org/2000/svg" viewBox="0 0 32 32">
  <defs>
    <style>
      .cls-1 {
        fill: #fff;
      }
    </style>
  </defs>
  <g id="svg-source">
    <g id="facebook">
      <path class="cls-1" d="M16,0C7.16,0,0,7.16,0,16s7.16,16,16,16,16-7.16,16-16S24.84,0,16,0ZM19.53,13.29l-.18,2.39h-2.45v8.31h-3.1v-8.31h-1.65v-2.39h1.65v-1.61c0-.71.02-1.8.53-2.48.54-.72,1.29-1.2,2.57-1.2,2.09,0,2.97.3,2.97.3l-.41,2.45s-.69-.2-1.33-.2-1.22.23-1.22.87v1.87h2.64Z"/>
    </g>
  </g>
</svg>