<?xml version="1.0" encoding="UTF-8"?>
<svg xmlns="http://www.w3.org/2000/svg" viewBox="0 0 32 32">
  <defs>
    <style>
      .cls-1 {
        fill: #fff;
      }
    </style>
  </defs>
  <g id="svg-source">
    <g id="google-plus">
      <g>
        <path class="cls-1" d="M15.77,11.72c-.22-1.68-1.43-3.02-2.71-3.06s-2.13,1.24-1.91,2.92c.22,1.68,1.43,3.06,2.71,3.1,1.28.04,2.13-1.29,1.91-2.97Z"/>
        <path class="cls-1" d="M16,0C7.16,0,0,7.16,0,16s7.16,16,16,16,16-7.16,16-16S24.84,0,16,0ZM13.36,23.96c-2.75,0-5.07-1.12-5.07-2.91s2.12-3.57,4.87-3.57c.3,0,.57,0,.86,0-.38-.37-.68-.82-.68-1.37,0-.33.1-.65.25-.93-.15.01-.3.01-.46.01-2.26,0-3.77-1.61-3.77-3.6s2.09-3.63,4.31-3.63h4.96l-1.11.8h-1.57c1.04.4,1.6,1.62,1.6,2.86,0,1.05-.58,1.95-1.4,2.59-.8.62-.95.89-.95,1.42,0,.45.85,1.22,1.3,1.54,1.31.92,1.73,1.78,1.73,3.22,0,1.79-1.74,3.57-4.87,3.57ZM23.71,16.38h-1.93v1.93h-1.55v-1.93h-1.93v-1.55h1.93v-1.93h1.55v1.93h1.93s0,1.55,0,1.55Z"/>
        <path class="cls-1" d="M14.92,18.14c-.38-.12-.79-.19-1.23-.2-1.9-.02-3.61,1.16-3.61,2.58s1.37,2.65,3.28,2.65c2.67,0,3.6-1.13,3.6-2.58,0-.17-.02-.34-.06-.51-.21-.82-.95-1.22-1.98-1.94Z"/>
      </g>
    </g>
  </g>
</svg>