<?xml version="1.0" encoding="UTF-8"?>
<svg id="Laag_2" xmlns="http://www.w3.org/2000/svg" viewBox="0 0 32 31.95">
  <g id="svg-source">
    <g id="graph-pie1">
      <g>
        <path d="M17.7,0h-.58v15.79h14.8l.04-.53c.02-.32.04-.65.04-.97,0-7.88-6.41-14.29-14.3-14.29ZM30.84,14.64h-12.56V1.17c6.98.3,12.56,6.07,12.56,13.12,0,.12,0,.23,0,.35Z"/>
        <path d="M14.87,3.36h-.58C6.41,3.36,0,9.78,0,17.66s6.41,14.29,14.3,14.29,13.76-5.85,14.25-13.33l.05-.62h-13.72V3.36ZM27.34,19.16c-.75,6.57-6.36,11.64-13.05,11.64-7.24,0-13.14-5.89-13.14-13.14S6.74,4.84,13.72,4.53v14.62s13.63,0,13.63,0Z"/>
      </g>
    </g>
  </g>
</svg>