<?xml version="1.0" encoding="UTF-8"?>
<svg id="Laag_2" data-name="Laag 2" xmlns="http://www.w3.org/2000/svg" viewBox="0 0 32 31.98">
  <g id="svg-source">
    <g id="joystick">
      <g>
        <path d="M20.3,25.41h-8.61c-.98,0-1.32.47-1.44.75-.12.28-.2.85.49,1.54l3.59,3.59c.44.44,1.03.69,1.66.69s1.22-.24,1.66-.69l3.59-3.59c.7-.7.61-1.27.49-1.54-.11-.27-.45-.74-1.44-.74ZM20.37,26.82l-3.59,3.59c-.42.41-1.15.41-1.56,0l-3.59-3.59c-.06-.05-.1-.1-.13-.15.05,0,.12-.01.19-.01h8.61c.08,0,.15,0,.2.01-.03.04-.07.09-.13.15Z"/>
        <path d="M31.31,14.31l-3.6-3.59c-.38-.38-.76-.57-1.14-.57-.53,0-1.14.4-1.14,1.52v8.61c0,1.12.61,1.52,1.14,1.52.38,0,.77-.19,1.14-.57l3.6-3.59c.44-.45.69-1.03.69-1.67s-.24-1.22-.69-1.66ZM30.43,16.76l-3.59,3.59c-.06.06-.1.1-.15.13,0-.05-.01-.12-.01-.2v-8.61c0-.08,0-.14.01-.19.04.03.09.07.15.13l3.59,3.59c.21.21.32.48.32.78s-.11.57-.32.78Z"/>
        <path d="M11.69,6.54h8.61c.99,0,1.33-.46,1.44-.74.12-.28.2-.85-.49-1.55l-3.59-3.59c-.88-.89-2.44-.89-3.32,0l-3.59,3.59c-.69.69-.61,1.26-.49,1.54.12.28.45.74,1.44.74ZM11.62,5.14l3.59-3.59c.41-.41,1.15-.41,1.56,0l3.59,3.59c.05.06.1.11.13.15-.05,0-.11.01-.2.01h-8.61c-.08,0-.14,0-.19-.01.03-.04.07-.09.13-.15Z"/>
        <path d="M5.42,10.15c-.38,0-.77.19-1.14.57l-3.59,3.59c-.45.45-.69,1.03-.69,1.66s.24,1.22.69,1.66l3.59,3.59c.38.38.76.57,1.14.57s.71-.2.91-.53c.15-.26.23-.59.23-.99v-8.61c0-1.12-.62-1.52-1.14-1.52ZM5.32,20.28c0,.08,0,.15-.01.2-.04-.03-.09-.07-.15-.13l-3.59-3.59c-.43-.43-.43-1.13,0-1.56l3.59-3.59c.05-.06.1-.1.15-.13,0,.05.01.11.01.19v8.61Z"/>
        <path d="M16,9.32c-3.67,0-6.66,2.99-6.66,6.66s2.99,6.66,6.66,6.66,6.66-2.98,6.66-6.66c0-3.67-2.99-6.66-6.66-6.66ZM16,21.39c-2.99,0-5.41-2.43-5.41-5.41s2.43-5.41,5.41-5.41,5.41,2.43,5.41,5.41c0,2.99-2.43,5.41-5.41,5.41Z"/>
      </g>
    </g>
  </g>
</svg>