<?xml version="1.0" encoding="UTF-8"?>
<svg id="Laag_2" data-name="Laag 2" xmlns="http://www.w3.org/2000/svg" viewBox="0 0 32 32">
  <g id="svg-source">
    <g id="linkedin">
      <path d="M16,0C7.16,0,0,7.16,0,16s7.16,16,16,16,16-7.16,16-16S24.84,0,16,0ZM11.52,22.69h-3.12v-9.98h3.12s0,9.98,0,9.98ZM9.88,11.46h-.02c-1.13,0-1.86-.76-1.86-1.73,0-.98.75-1.73,1.91-1.73s1.86.75,1.88,1.73c0,.97-.73,1.73-1.9,1.73ZM24,22.69h-3.54v-5.16c0-1.35-.55-2.27-1.77-2.27-.93,0-1.45.62-1.69,1.22-.09.22-.08.51-.08.82v5.4h-3.5s.05-9.15,0-9.98h3.5v1.57c.21-.69,1.33-1.66,3.11-1.66,2.22,0,3.96,1.44,3.96,4.53,0,0,0,5.55,0,5.55Z"/>
    </g>
  </g>
</svg>