<?xml version="1.0" encoding="UTF-8"?>
<svg id="Laag_2" xmlns="http://www.w3.org/2000/svg" viewBox="0 0 32 31.07">
  <g id="svg-source">
    <g id="map">
      <path d="M31.22.04l-10.08,3.75L11.06.04s-.04,0-.07,0c-.05-.01-.09-.02-.14-.02s-.09,0-.14.02c-.02,0-.05,0-.07,0L.38,3.86c-.23.08-.38.3-.38.54v26.08c0,.19.09.36.25.48.1.07.21.1.33.1.07,0,.13-.01.2-.04l10.08-3.75,10.08,3.75c.07.02.14.04.2.04s.14-.01.2-.04l10.28-3.83c.23-.08.38-.3.38-.54V.58c0-.19-.09-.37-.25-.47-.15-.11-.35-.14-.53-.07ZM10.28,26.26l-9.13,3.4V4.8L10.28,1.41v24.85ZM20.57,29.66l-9.13-3.4V1.41l9.13,3.4v24.85ZM30.85,26.26l-9.13,3.4V4.8l9.13-3.4v24.85Z"/>
    </g>
  </g>
</svg>