<?xml version="1.0" encoding="UTF-8"?>
<svg id="Laag_2" xmlns="http://www.w3.org/2000/svg" viewBox="0 0 20.43 32">
  <g id="svg-source">
    <g id="ribbon">
      <g>
        <path d="M19.86,0H.58c-.32,0-.58.26-.58.57v30.85c0,.23.14.44.35.53.22.1.46.04.63-.12l1.92-1.92s0,0,0,0l7.3-7.3,9.24,9.23c.11.11.25.17.41.17.07,0,.15-.01.22-.05.21-.09.35-.3.35-.53V.57c0-.32-.26-.57-.57-.57ZM19.29,30.04l-.78-.78v-3.62c0-.32-.26-.57-.57-.57s-.57.26-.57.57v2.47l-6.74-6.73c-.11-.11-.26-.17-.4-.17s-.29.06-.4.17l-6.73,6.73v-2.47c0-.32-.26-.57-.57-.57s-.57.26-.57.57v3.61l-.78.78V1.15h18.14v28.89h0Z"/>
        <path d="M2.5,6.93c.31,0,.57-.26.57-.57v-3.86c0-.32-.26-.58-.57-.58s-.57.26-.57.58v3.86c0,.32.26.57.57.57Z"/>
        <path d="M2.5,14.65c.31,0,.57-.26.57-.57v-3.86c0-.31-.26-.57-.57-.57s-.57.26-.57.57v3.86c0,.31.26.57.57.57Z"/>
        <path d="M2.5,22.36c.31,0,.57-.26.57-.57v-3.86c0-.32-.26-.57-.57-.57s-.57.26-.57.57v3.86c0,.32.26.57.57.57Z"/>
        <path d="M17.93,6.93c.31,0,.57-.26.57-.57v-3.86c0-.32-.26-.58-.57-.58s-.57.26-.57.58v3.86c0,.32.25.57.57.57Z"/>
        <path d="M17.93,14.65c.31,0,.57-.26.57-.57v-3.86c0-.31-.26-.57-.57-.57s-.57.26-.57.57v3.86c0,.31.25.57.57.57Z"/>
        <path d="M17.93,22.36c.31,0,.57-.26.57-.57v-3.86c0-.32-.26-.57-.57-.57s-.57.26-.57.57v3.86c0,.31.25.57.57.57Z"/>
      </g>
    </g>
  </g>
</svg>