<?xml version="1.0" encoding="UTF-8"?>
<svg id="Laag_2" data-name="Laag 2" xmlns="http://www.w3.org/2000/svg" viewBox="0 0 32 32">
  <g id="svg-source">
    <g id="twitter">
      <path d="M16,0C7.16,0,0,7.16,0,16s7.16,16,16,16,16-7.16,16-16S24.84,0,16,0ZM22.37,13.51c0,.14,0,.28,0,.43,0,4.35-3.31,9.36-9.35,9.36-1.86,0-3.59-.54-5.04-1.48.26.03.52.05.78.05,1.54,0,2.96-.52,4.08-1.41-1.44-.02-2.65-.98-3.07-2.28.2.04.41.06.62.06.3,0,.59-.04.87-.12-1.51-.3-2.64-1.63-2.64-3.22v-.04c.44.24.95.39,1.49.41-.88-.59-1.46-1.6-1.46-2.74,0-.6.16-1.17.44-1.65,1.62,1.99,4.05,3.3,6.78,3.44-.06-.24-.09-.49-.09-.75,0-1.81,1.47-3.29,3.29-3.29.95,0,1.8.4,2.4,1.04.75-.15,1.45-.42,2.09-.8-.24.77-.77,1.41-1.45,1.82.67-.08,1.3-.26,1.89-.52-.44.66-1,1.24-1.64,1.7Z"/>
    </g>
  </g>
</svg>